<svg width="26" height="35" viewBox="0 0 26 35" fill="none" xmlns="http://www.w3.org/2000/svg">
<path d="M10.2806 31.1359V21.6642H0V32.2811C0 32.583 0.0887487 32.882 0.26118 33.1609C0.433611 33.4399 0.686348 33.6933 1.00496 33.9068C1.32357 34.1203 1.70182 34.2896 2.1181 34.4052C2.53439 34.5207 2.98056 34.5802 3.43114 34.5802H22.2831C23.1931 34.5802 24.0659 34.338 24.7093 33.9068C25.3528 33.4756 25.7143 32.8909 25.7143 32.2811V21.6642H17.8368L10.2806 31.1359Z" fill="#31A93E" fill-opacity="0.94"/>
<path d="M22.2703 3.58166H17.991V0.13739H7.71043V3.58166H3.43114C1.52924 3.58166 0 4.60632 0 5.8807V21.664H5.14029L15.4209 8.74805V18.2198H20.5611L17.8239 21.664H25.7014V5.8807C25.7014 4.60632 24.1722 3.58166 22.2703 3.58166Z" fill="url(#paint0_linear_105_376)"/>
<defs>
<linearGradient id="paint0_linear_105_376" x1="12.8507" y1="0.13739" x2="12.8507" y2="21.664" gradientUnits="userSpaceOnUse">
<stop stop-color="#16E02C" stop-opacity="0.85"/>
<stop offset="1" stop-color="#31A93E"/>
<stop offset="1" stop-color="#31A93E"/>
</linearGradient>
</defs>
</svg>
