<svg width="39" height="40" viewBox="0 0 39 40" fill="none" xmlns="http://www.w3.org/2000/svg">
<path fill-rule="evenodd" clip-rule="evenodd" d="M24.351 5.62145C24.4127 5.41778 24.4444 5.21044 24.4444 5C24.4444 2.23858 18.9723 0 12.2222 0C5.47208 0 0 2.23858 0 5C0 5.212 0.0322668 5.421 0.094889 5.62611C0.0317334 5.58056 0 5.55556 0 5.55556V30C0 30 3.85964 33.3333 12.2222 33.3333C14.4038 33.3333 16.2789 33.1064 17.859 32.7711C17.8999 32.9786 17.9613 33.24 18.0531 33.5399C18.2753 34.2653 18.6801 35.2309 19.414 36.198C20.9191 38.1813 23.678 40 28.559 40C31.4789 40 33.7008 39.1376 35.3103 37.5041C36.8872 35.9038 37.7548 33.6848 38.2448 31.202C38.736 28.7131 38.8701 25.8388 38.887 22.8178C38.8958 21.2441 38.8713 19.5483 38.8467 17.8311V17.8309V17.8307V17.8304V17.8302V17.83V17.8298V17.8297V17.8294C38.825 16.3244 38.8031 14.8031 38.8031 13.3333C38.8031 12.7197 38.3057 12.2222 37.692 12.2222C37.0783 12.2222 36.5809 12.7197 36.5809 13.3333C36.5809 14.9141 36.6033 16.43 36.6253 17.911V17.9113V17.9116V17.9119V17.9121V17.9124V17.9128V17.913V17.9133V17.9143V17.9148V17.9151V17.9156V17.9159V17.9162V17.9166V17.9169C36.6499 19.5759 36.6739 21.1911 36.6648 22.8053C36.6481 25.795 36.5136 28.497 36.0647 30.7717C35.6144 33.0526 34.8703 34.7846 33.7274 35.9443C32.6173 37.071 31.0114 37.7778 28.559 37.7778C24.3072 37.7778 22.2309 36.2339 21.1842 34.8547C20.6422 34.1404 20.3419 33.4247 20.178 32.8892C20.0962 32.6224 20.0496 32.4042 20.024 32.2592C20.0202 32.2378 20.0169 32.2181 20.014 32.2001C23.0159 31.2338 24.4444 30 24.4444 30V27.709C28.8292 27.1622 32.2222 23.4218 32.2222 18.8889C32.2222 14.356 28.8292 10.6156 24.4444 10.0688V5.55556C24.4444 5.55556 24.413 5.57878 24.351 5.62145ZM14.4444 18.8889C14.4444 14.356 17.8374 10.6156 22.2222 10.0688V9.21745C22.1658 9.24045 22.1087 9.26344 22.0509 9.28644C19.7413 10.2071 16.4064 11.1111 12.2222 11.1111C11.8443 11.1111 11.474 11.1042 11.1111 11.0909V31.0896C11.4708 31.1037 11.8411 31.1111 12.2222 31.1111C16.0996 31.1111 18.8666 30.34 20.6183 29.6139C21.3013 29.3307 21.8344 29.0526 22.2222 28.8258V27.709C17.8374 27.1622 14.4444 23.4218 14.4444 18.8889ZM12.2222 8.88889C17.1314 8.88889 21.1111 7.39656 21.1111 5.55556C21.1111 3.71456 17.1314 2.22222 12.2222 2.22222C7.31302 2.22222 3.33333 3.71456 3.33333 5.55556C3.33333 7.39656 7.31302 8.88889 12.2222 8.88889ZM25.5556 18.8889C25.5556 20.1162 24.5607 21.1111 23.3333 21.1111C22.106 21.1111 21.1111 20.1162 21.1111 18.8889C21.1111 18.0663 21.558 17.3482 22.2222 16.964V13.3333C22.2222 12.7197 22.7197 12.2222 23.3333 12.2222C23.947 12.2222 24.4444 12.7197 24.4444 13.3333V16.964C25.1087 17.3482 25.5556 18.0663 25.5556 18.8889Z" fill="black"/>
</svg>
