<svg width="26" height="21" viewBox="0 0 26 21" fill="none" xmlns="http://www.w3.org/2000/svg">
<path fill-rule="evenodd" clip-rule="evenodd" d="M1.95459 19.2576V7.17233C1.95459 4.16151 4.39534 1.72076 7.40615 1.72076C10.417 1.72076 12.8577 4.16151 12.8577 7.17233V13.8058C12.8577 16.8168 15.2985 19.2576 18.3095 19.2576C21.3204 19.2576 23.7612 16.8168 23.7612 13.8058V1.72076" fill="#1F64CC"/>
<path d="M1.95459 19.2576V7.17233C1.95459 4.16151 4.39534 1.72076 7.40615 1.72076V1.72076C10.417 1.72076 12.8577 4.16151 12.8577 7.17233V13.8058C12.8577 16.8168 15.2985 19.2576 18.3095 19.2576V19.2576C21.3204 19.2576 23.7612 16.8168 23.7612 13.8058V1.72076" stroke="#101010" stroke-width="3" stroke-linecap="round" stroke-linejoin="round"/>
</svg>
