<svg width="40" height="40" viewBox="0 0 40 40" fill="none" xmlns="http://www.w3.org/2000/svg">
<path fill-rule="evenodd" clip-rule="evenodd" d="M37.5604 3.54864C40.1587 6.62364 40.6102 10.9415 39.2537 14.6493C36.9341 20.9895 31.7152 26.7334 26.7645 32.1821C24.3432 34.8469 21.9861 37.4412 20.0636 40C19.62 39.5353 19.1612 39.0571 18.6904 38.5663C12.369 31.9766 3.88529 23.1328 0.712859 14.6493C0.208303 13.3002 -0.0330079 11.8555 0.00362545 10.4036C0.0402588 8.95176 0.354081 7.52298 0.925937 6.20465C1.4978 4.8862 2.3157 3.70591 3.32976 2.73553C7.36642 -1.1384 13.6856 -0.534452 17.5268 3.55915L20.0636 6.2628L23.0019 3.1314C23.9655 2.1044 25.1155 1.29743 26.3815 0.759721C27.6475 0.222002 29.003 -0.0351805 30.3653 0.00386429C31.7277 0.0428971 33.0683 0.377357 34.3053 0.986801C35.5424 1.59626 36.65 2.46792 37.5604 3.54864ZM14.3663 21.2556L23.1889 8.99809L21.4919 18.2521H26.5213C26.983 18.2521 27.2432 18.822 26.9608 19.2143L18.1382 31.4719L19.8353 22.2179H14.8058C14.3441 22.2179 14.0839 21.648 14.3663 21.2556Z" fill="black"/>
</svg>
