<svg width="43" height="37" viewBox="0 0 43 37" fill="none" xmlns="http://www.w3.org/2000/svg">
<path d="M3.42568 12.6002C3.42568 6.06242 7.77822 0 13.7383 0C17.8744 0 20.9434 2.71999 22.8378 6.57855C24.7321 2.72021 27.8012 0 31.9373 0C37.8981 0 42.25 6.06345 42.25 12.6002C42.25 26.5933 22.8378 36.5405 22.8378 36.5405C22.8378 36.5405 9.76169 30.2455 5.07354 19.9196H16.6543L18.495 16.6474L20.6451 24.1729L25.6801 17.6993H31.973V15.4155H24.5631L21.6049 19.219L19.1874 10.758L15.3187 17.6358H4.20198C4.44404 18.4173 4.73725 19.1789 5.07354 19.9196L0 19.9195V17.6357L4.20198 17.6358C3.70707 16.0382 3.42568 14.3571 3.42568 12.6002Z" fill="black"/>
</svg>
