<svg width="202" height="172" viewBox="0 0 202 172" fill="none" xmlns="http://www.w3.org/2000/svg">
<path fill-rule="evenodd" clip-rule="evenodd" d="M43.7699 39.9649C50.9247 55.5058 66.5499 66.3418 84.7295 66.557L85.2811 66.5602H109.755C120.692 66.5602 129.558 75.4263 129.558 86.3633C129.558 97.1851 120.878 105.979 110.1 106.163L109.755 106.166H85.2811C38.1817 106.166 0 67.9846 0 20.8852L0.00291186 20.1804L0.0116472 19.4758L0.333561 0H116.352C163.654 0 202 38.346 202 85.6481C202 132.477 164.417 170.528 117.768 171.285L116.352 171.296H81.2014C70.2645 171.296 61.3984 162.43 61.3984 151.493C61.3984 140.671 70.0788 131.877 80.8567 131.693L81.2014 131.69H116.352C141.78 131.69 162.394 111.076 162.394 85.6481C162.394 60.4741 142.19 40.0188 117.113 39.6122L116.352 39.6061H43.6076L43.7699 39.9649Z" fill="#D9D9D9"/>
</svg>
