<svg width="36" height="39" viewBox="0 0 36 39" fill="none" xmlns="http://www.w3.org/2000/svg">
<path d="M29.1596 15.8892V11.3083C29.1596 5.07917 23.97 0 17.6054 0C11.2408 0 6.05124 5.07917 6.05124 11.3083V15.8892C2.60458 16.5983 0 19.6075 0 23.1917V30.8392C0 34.9792 3.42709 38.3333 7.65709 38.3333H27.5733C31.7837 38.3333 35.2108 34.9792 35.2108 30.8392V23.1917C35.2108 19.6075 32.6062 16.5983 29.1596 15.8892ZM19.0741 28.1367V30.9733C19.0741 31.7592 18.4083 32.4108 17.6054 32.4108C16.8025 32.4108 16.1366 31.7592 16.1366 30.9733V28.1367C14.9421 27.5808 14.1196 26.4117 14.1196 25.0508C14.1196 23.1725 15.6862 21.6392 17.6054 21.6392C19.5246 21.6392 21.0912 23.1725 21.0912 25.0508C21.0912 26.4117 20.2687 27.5808 19.0741 28.1367ZM8.98874 15.7167V11.3083C8.98874 6.65084 12.8466 2.875 17.6054 2.875C22.3641 2.875 26.2221 6.65084 26.2221 11.3083V15.7167H8.98874Z" fill="black"/>
</svg>
