<svg width="41" height="40" viewBox="0 0 41 40" fill="none" xmlns="http://www.w3.org/2000/svg">
<path d="M20.4998 0.833344C9.70942 0.833344 0.916504 9.43918 0.916504 20C0.916504 30.5608 9.70942 39.1667 20.4998 39.1667C31.2903 39.1667 40.0832 30.5608 40.0832 20C40.0832 9.43918 31.2903 0.833344 20.4998 0.833344ZM27.7457 16.4925L24.7886 22.8558C24.5144 23.45 24.0248 23.9292 23.4177 24.1975L16.9161 27.0917C16.544 27.2642 16.1523 27.3408 15.7607 27.3408C15.0361 27.3408 14.3507 27.0725 13.8023 26.555C12.9798 25.75 12.7644 24.5425 13.254 23.5075L16.2111 17.1442C16.4852 16.55 16.9748 16.0708 17.5819 15.8025L24.0836 12.9083C25.1411 12.4292 26.3748 12.64 27.1973 13.445C28.0198 14.25 28.2352 15.4575 27.7457 16.4925Z" fill="black"/>
</svg>
