<svg width="34" height="35" viewBox="0 0 34 35" fill="none" xmlns="http://www.w3.org/2000/svg">
<path d="M17 0.416672C7.90667 0.416672 0.5 7.31834 0.5 15.7917C0.5 22.4713 5.08333 28.16 11.5 30.2613V34.5833H15.1667V31.0642C15.7717 31.1667 16.3767 31.1667 17 31.1667C17.6233 31.1667 18.2283 31.1667 18.8333 31.0642V34.5833H22.5V30.2613C28.9167 28.1429 33.5 22.4542 33.5 15.7917C33.5 7.31834 26.0933 0.416672 17 0.416672ZM21.125 20.9167L15.625 26.0417L12.875 23.4792L15.1667 21.3438L12.875 19.2083L18.375 14.0833L21.125 16.6458L18.8333 18.7813L21.125 20.9167ZM24.3333 12.375H9.66667V8.95834H24.3333V12.375Z" fill="black"/>
</svg>
