<svg width="24" height="60" viewBox="0 0 24 60" fill="none" xmlns="http://www.w3.org/2000/svg">
<path fill-rule="evenodd" clip-rule="evenodd" d="M4.49235 38.6381L4.4901 35.9702L4.48245 26.6526L4.4673 8.04184C4.4637 3.60384 7.8186 0.00339242 11.9607 2.4168e-06C16.1028 -0.00340258 19.4637 3.59157 19.4673 8.02956L19.4824 26.6403L19.4901 35.9586L19.4923 38.6258C22.2375 40.8227 23.9968 44.2005 24 47.9901C24.0054 54.6175 18.6372 59.9946 12.0097 60C5.38245 60.0054 0.00540423 54.6372 4.23587e-06 48.0097C-0.00314576 44.2201 1.7508 40.8395 4.49235 38.6381ZM10.4556 26.133C12.2492 26.5967 14.2972 27.1262 16.4829 27.0878L16.4803 23.9603L13.4803 23.9627C12.6519 23.9634 11.9797 23.2923 11.9791 22.4639C11.9784 21.6354 12.6495 20.9634 13.4778 20.9627L16.4778 20.9603L16.4754 17.9603L13.4754 17.9627C12.6469 17.9634 11.9748 17.2923 11.9742 16.4639C11.9735 15.6356 12.6445 14.9634 13.473 14.9627L16.473 14.9603L16.4704 11.9603L13.4704 11.9627C12.642 11.9634 11.97 11.2923 11.9693 10.4639C11.9687 9.63556 12.6396 8.96337 13.468 8.96269L16.468 8.96023L16.4673 8.03202C16.465 5.36922 14.4486 3.21225 11.9632 3.21428C9.47805 3.21632 7.46505 5.37659 7.4673 8.03938L7.48155 25.5015C8.36025 25.5914 9.36045 25.85 10.4556 26.133Z" fill="black"/>
</svg>
