<svg width="42" height="34" viewBox="0 0 42 34" fill="none" xmlns="http://www.w3.org/2000/svg">
<path d="M41.671 22.125C41.671 27.2292 37.6293 32.9583 32.2543 32.9792L11.046 33.0625C10.8377 33.0833 10.5877 33.1042 10.3168 33.1042C9.06683 33.1042 7.3585 32.8542 5.58766 31.875C2.87933 30.375 0.879331 27.625 0.233497 24.5C-0.808169 19.375 1.71266 14.1667 6.25433 12.0833C6.421 3.95834 12.6085 0.104167 18.296 0H18.5668C24.3168 0 30.2752 3.83333 30.8585 11.2917C33.296 11.1042 35.7543 11.9167 37.7543 13.5833C38.1502 13.9167 41.671 17 41.671 22.125Z" fill="black"/>
</svg>
